<?xml version="1.0" encoding="UTF-8" standalone="no"?>
<svg
   width="24"
   height="24"
   viewBox="0 0 24 24"
   fill="none"
   stroke="currentColor"
   stroke-width="2"
   stroke-linecap="round"
   stroke-linejoin="round"
   version="1.1"
   id="svg3"
   xmlns="http://www.w3.org/2000/svg"
   xmlns:svg="http://www.w3.org/2000/svg">
  <defs
     id="defs3" />
  <path
     style="baseline-shift:baseline;display:inline;overflow:visible;vector-effect:none;fill:#000000;stroke:none;stroke-linecap:butt;stroke-linejoin:miter;enable-background:accumulate;stop-color:#000000;stop-opacity:1;opacity:1"
     d="M 4,2 C 2.3549904,2 1,3.3549904 1,5 v 16.285156 c 9.28e-5,0.719214 0.471188,1.338398 1.0546875,1.580078 0.5834995,0.241681 1.3566271,0.139374 1.8652344,-0.36914 a 1.0001,1.0001 0 0 0 0,-0.002 L 6.1210937,20.292969 C 6.308858,20.105148 6.5625462,20.000057 6.828125,20 H 20 c 1.64501,0 3,-1.35499 3,-3 V 5 C 23,3.3549904 21.64501,2 20,2 Z m 0,2 h 16 c 0.564129,0 1,0.4358706 1,1 v 12 c 0,0.564129 -0.435871,1 -1,1 H 6.828125 c -0.7952004,1.7e-4 -1.5588871,0.31653 -2.1210938,0.878906 L 3,20.585937 V 5 C 3,4.4358706 3.4358706,4 4,4 Z"
     id="path1" />
  <path
     style="baseline-shift:baseline;display:inline;overflow:visible;vector-effect:none;fill:#000000;stroke:none;stroke-linecap:butt;stroke-linejoin:miter;enable-background:accumulate;stop-color:#000000;stop-opacity:1;opacity:1"
     d="M 10,7 A 1,1 0 0 0 9.2929688,7.2929687 L 6.2929687,10.292969 a 1.0001,1.0001 0 0 0 0,1.414062 l 3.0000001,3 a 1,1 0 0 0 1.4140622,0 1,1 0 0 0 0,-1.414062 L 8.4140625,11 10.707031,8.7070313 a 1,1 0 0 0 0,-1.4140626 A 1,1 0 0 0 10,7 Z"
     id="path2" />
  <path
     style="baseline-shift:baseline;display:inline;overflow:visible;vector-effect:none;fill:#000000;stroke:none;stroke-linecap:butt;stroke-linejoin:miter;enable-background:accumulate;stop-color:#000000;stop-opacity:1;opacity:1"
     d="m 7,10 a 1,1 0 0 0 -1,1 1,1 0 0 0 1,1 h 8 c 0.564129,0 1,0.435871 1,1 v 1 a 1,1 0 0 0 1,1 1,1 0 0 0 1,-1 v -1 c 0,-1.64501 -1.35499,-3 -3,-3 z"
     id="path3" />
</svg>
