<?xml version="1.0" encoding="UTF-8" standalone="no"?>
<svg
   width="24"
   height="24"
   viewBox="0 0 24 24"
   fill="none"
   stroke="currentColor"
   stroke-width="2"
   stroke-linecap="round"
   stroke-linejoin="round"
   version="1.1"
   id="svg2"
   xmlns="http://www.w3.org/2000/svg"
   xmlns:svg="http://www.w3.org/2000/svg">
  <defs
     id="defs2" />
  <path
     style="baseline-shift:baseline;display:inline;overflow:visible;vector-effect:none;fill:#000000;stroke:none;stroke-linecap:butt;stroke-linejoin:miter;enable-background:accumulate;stop-color:#000000;stop-opacity:1;opacity:1"
     d="m 15.292969,9.2929688 -4,4.0000002 a 1,1 0 0 0 0,1.414062 1,1 0 0 0 1.414062,0 l 4,-4 a 1,1 0 0 0 0,-1.4140622 1,1 0 0 0 -1.414062,0 z"
     id="path1" />
  <path
     style="baseline-shift:baseline;display:inline;overflow:visible;vector-effect:none;fill:#000000;stroke:none;stroke-linecap:butt;stroke-linejoin:miter;enable-background:accumulate;stop-color:#000000;stop-opacity:1;opacity:1"
     d="M 12,3 C 3.5801491,3 -1.7357859,12.208237 2.4746094,19.5 A 1,1 0 0 0 3.8398438,19.865234 1,1 0 0 0 4.2050781,18.5 C 0.71643869,12.458208 5.0235301,5 12,5 c 6.97647,0 11.283561,7.458208 7.794922,13.5 A 1,1 0 0 0 20.160156,19.865234 1,1 0 0 0 21.525391,19.5 C 25.735786,12.208237 20.419851,3 12,3 Z"
     id="path2" />
</svg>
