<?xml version="1.0" encoding="UTF-8" standalone="no"?>
<svg
   width="24"
   height="24"
   viewBox="0 0 24 24"
   fill="none"
   stroke="currentColor"
   stroke-width="2"
   stroke-linecap="round"
   stroke-linejoin="round"
   version="1.1"
   id="svg2"
   xmlns="http://www.w3.org/2000/svg"
   xmlns:svg="http://www.w3.org/2000/svg">
  <defs
     id="defs2" />
  <path
     style="baseline-shift:baseline;display:inline;overflow:visible;vector-effect:none;fill:#000000;stroke:none;stroke-linecap:butt;stroke-linejoin:miter;enable-background:accumulate;stop-color:#000000;stop-opacity:1;opacity:1"
     d="M 5,4 C 4.1666667,4 3.4501036,4.3858339 2.9179688,4.9179687 2.3858339,5.4501036 2,6.1666667 2,7 v 10 c 0,0.833333 0.3858339,1.549896 0.9179688,2.082031 C 3.4501036,19.614166 4.1666667,20 5,20 H 8 A 1,1 0 0 0 9,19 1,1 0 0 0 8,18 H 5 C 4.8333333,18 4.5498964,17.885834 4.3320312,17.667969 4.1141661,17.450104 4,17.166667 4,17 V 7 C 4,6.8333333 4.1141661,6.5498964 4.3320312,6.3320312 4.5498964,6.1141661 4.8333333,6 5,6 H 8 A 1,1 0 0 0 9,5 1,1 0 0 0 8,4 Z"
     id="path1" />
  <path
     style="baseline-shift:baseline;display:inline;overflow:visible;vector-effect:none;fill:#000000;stroke:none;stroke-linecap:butt;stroke-linejoin:miter;enable-background:accumulate;stop-color:#000000;stop-opacity:1;opacity:1"
     d="m 16,4 a 1,1 0 0 0 -1,1 1,1 0 0 0 1,1 h 3 c 0.166667,0 0.450104,0.1141661 0.667969,0.3320312 C 19.885834,6.5498964 20,6.8333333 20,7 v 10 c 0,0.166667 -0.114166,0.450104 -0.332031,0.667969 C 19.450104,17.885834 19.166667,18 19,18 h -3 a 1,1 0 0 0 -1,1 1,1 0 0 0 1,1 h 3 c 0.833333,0 1.549896,-0.385834 2.082031,-0.917969 C 21.614166,18.549896 22,17.833333 22,17 V 7 C 22,6.1666667 21.614166,5.4501036 21.082031,4.9179687 20.549896,4.3858339 19.833333,4 19,4 Z"
     id="path2" />
  <path
     style="baseline-shift:baseline;display:inline;overflow:visible;vector-effect:none;fill:#000000;stroke:none;stroke-linecap:butt;stroke-linejoin:miter;enable-background:accumulate;stop-color:#000000;stop-opacity:1;opacity:1"
     d="m 12,3 a 1,1 0 0 0 -1,1 v 16 a 1,1 0 0 0 1,1 1,1 0 0 0 1,-1 V 4 A 1,1 0 0 0 12,3 Z"
     id="line2" />
</svg>
