<?xml version="1.0" encoding="UTF-8" standalone="no"?>
<!-- Created with Inkscape (http://www.inkscape.org/) -->

<svg
   width="512"
   height="512"
   viewBox="0 0 512 512"
   version="1.1"
   id="svg1"
   xml:space="preserve"
   inkscape:version="1.4.2 (ebf0e94, 2025-05-08)"
   sodipodi:docname="trex-logo.svg"
   xmlns:inkscape="http://www.inkscape.org/namespaces/inkscape"
   xmlns:sodipodi="http://sodipodi.sourceforge.net/DTD/sodipodi-0.dtd"
   xmlns="http://www.w3.org/2000/svg"
   xmlns:svg="http://www.w3.org/2000/svg"><sodipodi:namedview
     id="namedview1"
     pagecolor="#ffffff"
     bordercolor="#000000"
     borderopacity="0.25"
     inkscape:showpageshadow="2"
     inkscape:pageopacity="0.0"
     inkscape:pagecheckerboard="0"
     inkscape:deskcolor="#d1d1d1"
     inkscape:document-units="px"
     inkscape:zoom="0.67810435"
     inkscape:cx="120.92534"
     inkscape:cy="331.06999"
     inkscape:window-width="1366"
     inkscape:window-height="700"
     inkscape:window-x="0"
     inkscape:window-y="0"
     inkscape:window-maximized="1"
     inkscape:current-layer="layer1" /><defs
     id="defs1" /><g
     inkscape:label="Layer 1"
     inkscape:groupmode="layer"
     id="layer1"><g
       id="g6"
       transform="matrix(2.3431082,0,0,2.3431082,-191.12804,-49.415324)"><path
         id="path6"
         style="opacity:1;fill:#00ffff;fill-opacity:1;stroke:#000000;stroke-width:3.3;stroke-linecap:round;stroke-linejoin:round"
         d="M 294.58249,130.34623 A 103.7556,103.7556 0 0 1 190.82689,234.10183 103.7556,103.7556 0 0 1 87.071282,130.34623 103.7556,103.7556 0 0 1 190.82689,26.590633 103.7556,103.7556 0 0 1 294.58249,130.34623 Z" /><path
         style="opacity:1;fill:none;stroke:#000000;stroke-width:3.3;stroke-linecap:round;stroke-linejoin:round;stroke-dasharray:none"
         d="m 286.24033,166.84317 c 0,0 -17.72709,-13.03462 -22.94094,-58.3951 -5.21385,-45.360494 -39.62526,-57.352347 -69.86558,-54.745422 -30.24033,2.606924 -21.89817,33.89002 -49.53157,35.97556 -27.6334,2.08554 -47.446028,13.556012 -40.66802,35.454172 6.778,21.89817 16.16293,28.67617 40.66802,25.54786 24.50509,-3.12831 14.07739,-3.64969 51.09572,6.77801 37.01833,10.4277 57.35235,-7.29939 57.35235,-7.29939"
         id="path2"
         sodipodi:nodetypes="cssssssc" /><path
         style="opacity:1;fill:none;stroke:#000000;stroke-width:3.3;stroke-linecap:round;stroke-linejoin:round;stroke-dasharray:none"
         d="m 204.90428,159.0224 c 0,0 12.51324,37.53972 0.52138,64.13035"
         id="path3"
         sodipodi:nodetypes="cc" /><path
         style="opacity:1;fill:none;stroke:#000000;stroke-width:3.3;stroke-linecap:round;stroke-linejoin:round;stroke-dasharray:none"
         d="m 107.4053,133.47455 15.12016,-16.16294 13.55601,19.81263 7.29939,-18.76986 12.51323,9.38493 c 0,0 2.60693,-7.29939 14.0774,-4.69247 11.47047,2.60693 25.02648,19.29125 53.18126,0.52139"
         id="path4"
         sodipodi:nodetypes="cccccsc" /><path
         id="path5"
         style="opacity:1;stroke-width:3.3;stroke-linecap:round;stroke-linejoin:round"
         d="m 200.21181,93.849289 a 9.1242361,13.556008 0 0 1 -9.12424,13.556011 9.1242361,13.556008 0 0 1 -9.12424,-13.556011 9.1242361,13.556008 0 0 1 9.12424,-13.556008 9.1242361,13.556008 0 0 1 9.12424,13.556008 z" /><path
         id="ellipse6"
         style="opacity:1;fill:#ffffff;stroke-width:1.75201;stroke-linecap:round;stroke-linejoin:round"
         d="m 193.95519,89.938904 a 4.9531565,7.0386968 0 0 1 -4.95316,7.038697 4.9531565,7.0386968 0 0 1 -4.95316,-7.038697 4.9531565,7.0386968 0 0 1 4.95316,-7.038697 4.9531565,7.0386968 0 0 1 4.95316,7.038697 z" /></g></g></svg>
